<?xml version="1.0" encoding="UTF-8"?>
<svg id="Ebene_1" data-name="Ebene 1" xmlns="http://www.w3.org/2000/svg" viewBox="0 0 775.05 229.36">
  <defs>
    <style>
      .cls-1 {
        fill: #333;
      }

      .cls-2 {
        fill: #218abf;
      }

      .cls-3 {
        fill: #42bfe8;
      }

      .cls-4 {
        fill: #6ebd85;
      }

      .cls-5 {
        fill: #4fbab5;
      }
    </style>
  </defs>
  <polygon class="cls-1" points="91.83 85.64 91.83 61.99 0 61.99 0 197.36 29.83 197.36 29.83 140.16 86.98 140.16 86.98 116.5 29.83 116.5 29.83 85.64 91.83 85.64 91.83 85.64"/>
  <polygon class="cls-1" points="102.73 62 102.73 197.37 132.26 197.37 132.26 62 102.73 62 102.73 62"/>
  <path class="cls-1" d="m196.16,174.19c-9.1,0-15.46-5.77-18.22-16.58-.15-.55-.28-1.12-.4-1.7h64.58c.67-5.87.84-10.4.84-13.42,0-.87-.01-1.73-.05-2.6-.07-1.86-.23-3.71-.47-5.52-2.92-22.42-18.23-40.53-46.28-40.53-33.18,0-48.98,22.57-49.48,50.62,0,.46,0,.92,0,1.38,0,1.05.02,2.09.06,3.11.13,3.26.48,6.44,1.05,9.51,4.13,22.38,19.81,38.88,48.38,38.88,20.8,0,40.42-12.08,46.46-35.73h-29.19c-3.36,9.9-10.24,12.58-17.28,12.58h0Zm0-56.87c8.05,0,14.09,5.54,15.6,15.1h-33.55c3.02-9.73,9.39-15.1,17.95-15.1h0Z"/>
  <path class="cls-1" d="m439.73,149.89V61.99h-29.03l-38.57,67.52-3.51,6.14-10.43,18.26v19.46h51.84v23.98h29.69v-23.98h15.6v-23.49h-15.6Zm-29.69,0h-18.79l8.11-14.26,3.47-6.11,7.21-12.68v33.05h0Z"/>
  <path class="cls-1" d="m550.42,156.76l-9.05-15.86-.33-.57c3.54-1.1,6.84-2.54,9.85-4.35,10.27-6.19,16.99-16.75,16.99-33.22,0-31.37-23.65-40.77-49.48-40.77h-49.49v135.37h29.85v-53.85h11.07l7.03,12.67,22.84,41.18h33.89l-23.17-40.6h0Zm-30.35-36.89h-21.3v-34.22h21.3c8.06,0,17.95,3.19,17.95,17.11s-9.89,17.11-17.95,17.11h0Z"/>
  <path class="cls-1" d="m672.39,150.31c.24-3.22.31-5.84.31-7.81,0-26-15.43-48.65-46.8-48.65s-45.84,18.51-48.93,42.84c-.28,2.26-.46,4.57-.53,6.91-.02.75-.03,1.5-.03,2.25,0,3.89.29,7.67.89,11.31,3.75,23.05,19.48,40.19,48.6,40.19,20.8,0,40.43-12.08,46.46-35.73h-29.18c-3.36,9.9-10.24,12.58-17.28,12.58-9.01,0-15.34-5.65-18.14-16.26-.18-.65-.33-1.33-.48-2.02h64.58c.23-2.03.4-3.91.53-5.61h0Zm-64.44-17.88c3.03-9.73,9.39-15.1,17.95-15.1,8.05,0,14.08,5.54,15.6,15.1h-33.55Z"/>
  <path class="cls-1" d="m775.03,164.15c-.29-10.45-6.39-17.1-14.41-21.69-7.88-4.36-16.78-6.71-26-9.23-3.52-.83-16.61-3.01-16.61-8.38,0-4.19,4.19-7.55,11.58-7.55s12.07,3.02,12.74,11.24h30.03c-2.85-26.67-23.82-34.73-42.27-34.73s-42.44,8.56-42.44,31.71c0,18.62,18.11,24.83,33.55,29.02,3.91,1.05,15.72,2.8,20.8,7.39,1.45,1.31,2.35,2.86,2.35,4.69,0,1.24-.39,2.35-1.14,3.32-.57.74-1.35,1.39-2.33,1.95-2.58,1.47-6.53,2.28-11.63,2.28-7.57,0-12.62-2.66-14.36-10.38-.17-.74-.31-1.52-.41-2.35h-30.35c.03.23.06.46.09.69.79,5.91,2.55,11.02,5.07,15.35.02.02.03.04.04.06,5.4,9.26,14.21,15.01,24.07,17.79,4.79,1.35,9.82,1.99,14.84,1.99,9.73,0,18.69-1.42,26.11-4.33,4.73-1.86,8.83-4.32,12.11-7.41.47-.44.93-.9,1.36-1.37,4.59-4.95,7.23-11.35,7.23-19.27,0-.26-.01-.53-.02-.79h0Z"/>
  <polygon class="cls-5" points="292.3 188.52 274.31 206.52 256.31 188.52 274.31 170.52 292.3 188.52 292.3 188.52"/>
  <polygon class="cls-2" points="231.43 229.1 208.65 229.1 206.31 229.36 206.63 229.1 223.8 214.76 225.94 218.79 230.07 226.55 230.14 226.69 230.62 227.58 231.43 229.1 231.43 229.1"/>
  <polygon class="cls-3" points="263.75 213.73 243.38 225.24 232.47 208.53 248.46 195.73 263.75 213.73 263.75 213.73"/>
  <polygon class="cls-4" points="355.54 89.43 349.81 101.2 337.43 105.47 325.66 99.74 321.39 87.36 327.12 75.59 339.5 71.32 351.27 77.06 355.54 89.43 355.54 89.43"/>
  <path class="cls-4" d="m381.68,27.33l-2.09,3.06c-.71,1.03-1.79,1.74-3.02,1.98l-3.64.69c-1.23.23-2.5-.03-3.53-.74l-3.06-2.09c-1.03-.7-1.74-1.79-1.98-3.02l-.69-3.64c-.23-1.23.03-2.5.73-3.53l2.09-3.06c.7-1.03,1.79-1.75,3.02-1.98l3.64-.69c1.23-.23,2.5.03,3.53.74l3.07,2.09c1.03.7,1.74,1.79,1.98,3.02l.69,3.64c.23,1.23-.03,2.5-.74,3.53h0Z"/>
  <path class="cls-4" d="m369.66,53.84l-4.09,8.4c-.16.33-.46.59-.81.71l-8.83,3.04c-.36.12-.74.1-1.08-.06l-8.39-4.09c-.34-.16-.6-.46-.72-.81l-3.04-8.83c-.12-.35-.1-.74.07-1.08l4.09-8.39c.16-.34.46-.6.81-.72l8.83-3.05c.35-.12.74-.1,1.08.07l8.39,4.09c.34.16.6.46.72.81l3.04,8.83c.12.36.1.74-.07,1.08h0Z"/>
  <polygon class="cls-4" points="254.31 61.97 301.45 126.78 305.19 119.45 305.21 119.42 319.46 109.33 332.49 116.14 333.48 135 320.52 153 375.84 229.08 342.94 229.08 304.15 175.74 300.73 180.49 282.7 162.32 287.59 152.97 276.81 138.14 221.41 61.97 254.31 61.97 254.31 61.97"/>
  <path class="cls-4" d="m386.26,5.53c0-3.05,2.47-5.53,5.53-5.53s5.53,2.48,5.53,5.53-2.48,5.53-5.53,5.53-5.53-2.48-5.53-5.53h0Z"/>
</svg>